<svg width="31" height="30" viewBox="0 0 31 30" fill="none" xmlns="http://www.w3.org/2000/svg">
<path d="M6.98763 3.91679C6.98721 4.75664 6.65318 5.56193 6.05902 6.15549C5.46485 6.74906 4.65923 7.08229 3.81938 7.08187C2.97953 7.08145 2.17424 6.74742 1.58067 6.15325C0.987104 5.55909 0.653877 4.75347 0.654297 3.91362C0.654717 3.07377 0.98875 2.26848 1.58291 1.67491C2.17707 1.08134 2.98269 0.748116 3.82255 0.748536C4.6624 0.748955 5.46769 1.08299 6.06126 1.67715C6.65482 2.27131 6.98805 3.07693 6.98763 3.91679ZM7.08263 9.42679H0.749297V29.2501H7.08263V9.42679ZM17.0893 9.42679H10.7876V29.2501H17.026V18.8476C17.026 13.0526 24.5785 12.5143 24.5785 18.8476V29.2501H30.8326V16.6943C30.8326 6.92512 19.6543 7.28929 17.026 12.0868L17.0893 9.42679Z" fill="#DE1A1B"/>
</svg>
