<svg width="32" height="26" viewBox="0 0 32 26" fill="none" xmlns="http://www.w3.org/2000/svg">
<path d="M31.1091 4.28866C31.8327 7.11016 31.8327 13.0002 31.8327 13.0002C31.8327 13.0002 31.8327 18.8902 31.1091 21.7117C30.7069 23.2712 29.5305 24.4983 28.0406 24.9132C25.3347 25.6668 15.9994 25.6668 15.9994 25.6668C15.9994 25.6668 6.66877 25.6668 3.9581 24.9132C2.46185 24.492 1.28702 23.2665 0.889599 21.7117C0.166016 18.8902 0.166016 13.0002 0.166016 13.0002C0.166016 13.0002 0.166016 7.11016 0.889599 4.28866C1.29177 2.72908 2.46818 1.502 3.9581 1.08716C6.66877 0.333496 15.9994 0.333496 15.9994 0.333496C15.9994 0.333496 25.3347 0.333496 28.0406 1.08716C29.5369 1.50833 30.7117 2.73383 31.1091 4.28866ZM12.8327 18.5418L22.3327 13.0002L12.8327 7.4585V18.5418Z" fill="#DE1A1B"/>
</svg>
